HIERARCHY
ROOT root
{
	OFFSET 0.000000 0.000000 0.000000
	CHANNELS 6 Xposition Yposition Zposition Zrotation Yrotation Xrotation
	JOINT lhip
	{
		OFFSET 0.058581 -0.082280 -0.017664
		CHANNELS 3 Zrotation Yrotation Xrotation
		JOINT lknee
		{
			OFFSET 0.043451 -0.386469 0.008037
			CHANNELS 3 Zrotation Yrotation Xrotation
			JOINT lankle
			{
				OFFSET -0.014790 -0.426874 -0.037428
				CHANNELS 3 Zrotation Yrotation Xrotation
				JOINT ltoe
				{
					OFFSET 0.041054 -0.060286 0.122042
					CHANNELS 3 Zrotation Yrotation Xrotation
					End Site
					{
						OFFSET 0.000000 0.000000 0.000000
					}
				}
			}
		}
	}
	JOINT rhip
	{
		OFFSET -0.060310 -0.090513 -0.013543
		CHANNELS 3 Zrotation Yrotation Xrotation
		JOINT rknee
		{
			OFFSET -0.043257 -0.383688 -0.004843
			CHANNELS 3 Zrotation Yrotation Xrotation
			JOINT rankle
			{
				OFFSET 0.019056 -0.420046 -0.034562
				CHANNELS 3 Zrotation Yrotation Xrotation
				JOINT rtoe
				{
					OFFSET -0.034840 -0.062106 0.130323
					CHANNELS 3 Zrotation Yrotation Xrotation
					End Site
					{
						OFFSET 0.000000 0.000000 0.000000
					}
				}
			}
		}
	}
	JOINT lowerback
	{
		OFFSET 0.004439 0.124404 -0.038385
		CHANNELS 3 Zrotation Yrotation Xrotation
		JOINT upperback
		{
			OFFSET 0.004488 0.137956 0.026820
			CHANNELS 3 Zrotation Yrotation Xrotation
			JOINT chest
			{
				OFFSET -0.002265 0.056032 0.002855
				CHANNELS 3 Zrotation Yrotation Xrotation
				JOINT lowerneck
				{
					OFFSET -0.013390 0.211636 -0.033468
					CHANNELS 3 Zrotation Yrotation Xrotation
					JOINT upperneck
					{
						OFFSET 0.010113 0.088937 0.050410
						CHANNELS 3 Zrotation Yrotation Xrotation
						End Site
						{
							OFFSET 0.000000 0.000000 0.000000
						}
					}
				}
				JOINT lclavicle
				{
					OFFSET 0.071702 0.114000 -0.018898
					CHANNELS 3 Zrotation Yrotation Xrotation
					JOINT lshoulder
					{
						OFFSET 0.122921 0.045205 -0.019046
						CHANNELS 3 Zrotation Yrotation Xrotation
						JOINT lelbow
						{
							OFFSET 0.255332 -0.015649 -0.022946
							CHANNELS 3 Zrotation Yrotation Xrotation
							JOINT lwrist
							{
								OFFSET 0.265709 0.012698 -0.007375
								CHANNELS 3 Zrotation Yrotation Xrotation
								End Site
								{
									OFFSET 0.000000 0.000000 0.000000
								}
							}
						}
					}
				}
				JOINT rclavicle
				{
					OFFSET -0.082954 0.112472 -0.023707
					CHANNELS 3 Zrotation Yrotation Xrotation
					JOINT rshoulder
					{
						OFFSET -0.113228 0.046853 -0.008472
						CHANNELS 3 Zrotation Yrotation Xrotation
						JOINT relbow
						{
							OFFSET -0.260127 -0.014369 -0.031269
							CHANNELS 3 Zrotation Yrotation Xrotation
							JOINT rwrist
							{
								OFFSET -0.269108 0.006794 -0.006027
								CHANNELS 3 Zrotation Yrotation Xrotation
								End Site
								{
									OFFSET 0.000000 0.000000 0.000000
								}
							}
						}
					}
				}
			}
		}
	}
}
MOTION
Frames: 15
Frame Time: 0.033333
-2.131877 0.744690 1.011742 90.988381 3.142781 87.654967 2.609140 -3.676699 1.909066 -0.435428 -14.074942 0.129149 0.390850 7.951679 -6.337223 0.000000 -0.000000 0.000000 6.124110 0.960758 -1.749610 0.516065 3.934937 14.080837 5.090062 -3.264445 -8.873071 0.000000 -0.000000 0.000000 -9.263768 3.405969 10.565398 -3.082486 -0.431512 2.384816 -2.770634 1.173029 1.650778 3.999611 5.822690 21.201703 1.131849 -3.106459 25.154266 -23.688866 -6.114030 2.796685 -47.429549 -14.055028 9.635654 6.094122 -16.274280 -0.430006 3.828954 -8.915141 -1.998904 23.210012 8.432849 6.688029 59.229995 9.012149 18.936097 -5.628567 30.838881 13.002107 4.859949 4.803747 -4.587560 
-2.131495 0.746612 1.012276 90.820987 3.341812 87.682710 2.673065 -3.668737 2.179625 -0.304257 -14.020126 -0.338733 0.371996 8.037184 -6.160611 0.000000 -0.000000 0.000000 6.059709 0.940427 -1.895048 0.655149 3.942825 14.308925 5.302231 -2.967139 -8.366849 0.000000 -0.000000 0.000000 -8.971875 3.243080 10.841198 -3.135771 -0.453929 2.149727 -2.826405 1.238597 1.611759 3.948551 5.810248 21.287056 1.027092 -3.017975 25.166080 -24.039795 -5.586625 2.960521 -47.605374 -12.954170 9.826763 5.722412 -16.169566 0.361066 3.189136 -9.090747 -1.675757 23.467787 8.324976 6.836679 58.807347 9.067891 18.656674 -5.579936 30.342205 13.092366 5.230000 5.064021 -3.801211 
-2.130819 0.748487 1.012360 90.647973 3.474203 87.581582 2.689646 -3.605974 2.566670 -0.212909 -14.068233 -0.811736 0.312015 8.204689 -5.997446 0.000000 -0.000000 0.000000 6.011620 1.144251 -1.904595 0.799875 3.994074 14.590244 5.316161 -3.024552 -8.319256 0.000000 -0.000000 0.000000 -8.902649 3.256268 10.775035 -3.037530 -0.247661 2.422836 -2.781679 1.236947 1.708274 4.088613 5.889485 21.177424 0.816853 -2.845742 25.259671 -24.188631 -5.229673 3.045596 -48.007896 -12.359488 10.048116 5.260938 -15.957537 1.240931 2.967724 -8.577829 -1.019617 23.454602 8.090806 6.823751 58.671454 9.110107 18.546659 -5.695833 30.325887 12.982724 5.210376 4.777279 -3.507237 
-2.130518 0.750300 1.012488 90.461438 3.564977 87.670506 2.644339 -3.506298 2.715386 -0.122872 -13.955140 -1.211148 0.409243 8.173982 -5.886831 0.000000 -0.000000 0.000000 5.871544 1.221721 -2.379638 0.945164 3.926578 15.273037 5.350503 -2.928663 -8.076569 0.000000 -0.000000 0.000000 -8.895448 3.268727 10.439825 -2.915832 -0.107238 2.674945 -2.765519 1.258717 1.827188 4.109495 5.762566 21.148345 0.665485 -2.901628 25.159529 -24.206412 -5.055527 3.255478 -48.355968 -11.935468 10.211942 5.012049 -15.585126 1.942179 2.399999 -8.424911 -0.578096 23.380434 7.965125 6.771435 58.642357 9.333950 18.423718 -5.664423 30.243807 12.888944 5.314622 4.715838 -3.592218 
-2.130356 0.752360 1.012800 90.463360 3.702544 87.636274 2.602012 -3.352184 3.031526 0.096350 -14.095304 -1.740470 0.339158 8.191352 -5.644022 0.000000 -0.000000 0.000000 5.788529 1.279288 -2.476616 1.052816 3.873464 15.533751 5.481860 -2.793987 -7.770112 0.000000 -0.000000 0.000000 -8.690523 3.130883 10.805712 -2.905406 -0.109931 2.254022 -2.794843 1.326715 1.728079 4.127348 5.794567 21.308019 0.465566 -2.891771 25.412516 -24.332349 -4.751804 3.166118 -48.381307 -11.342186 10.386184 4.434340 -15.226387 2.753396 2.046147 -8.451705 -0.076736 23.542558 7.747521 6.743686 58.572645 9.186046 18.430578 -5.628379 30.351749 13.088486 5.325470 5.002669 -3.185481 
-2.130539 0.754425 1.012839 90.516440 3.773580 87.573064 2.584313 -3.372886 3.270063 0.049393 -14.114081 -2.110694 0.391523 8.197558 -5.379796 0.000000 -0.000000 0.000000 5.642091 1.326372 -2.629607 1.251000 3.944013 15.949384 5.266356 -2.678341 -7.289888 0.000000 -0.000000 0.000000 -8.651462 3.153008 10.580476 -2.800044 -0.044229 2.729997 -2.757997 1.340748 1.834582 4.197568 5.650805 21.323122 0.422382 -3.199267 25.100116 -24.110594 -4.564793 3.005136 -48.571495 -11.366443 10.563330 3.863712 -15.369522 3.550530 1.834305 -8.361695 -0.068986 23.427405 7.692282 6.489027 58.683199 9.504043 18.510173 -5.511960 30.590205 12.799072 5.197542 4.573843 -3.620395 
-2.130661 0.756554 1.012836 90.469272 3.920364 87.577636 2.566622 -3.296434 3.355845 0.123673 -14.181096 -2.295474 0.460224 8.186228 -5.405833 0.000000 -0.000000 0.000000 5.605065 1.380673 -2.923723 1.324707 3.916458 16.490462 5.332424 -2.578142 -7.286770 0.000000 -0.000000 0.000000 -8.518812 3.218545 10.217527 -2.628508 0.059148 3.054721 -2.728966 1.381052 1.950989 4.292302 5.709142 21.198263 0.200121 -3.288116 25.099293 -24.080242 -4.688482 2.858175 -48.591398 -11.502693 10.637627 3.500532 -15.257157 4.122712 1.131811 -7.975880 0.768048 23.505310 7.776482 6.487865 58.664767 9.764609 18.528327 -5.824271 31.081186 12.391298 5.698156 4.218122 -3.848930 
-2.130986 0.759159 1.012872 90.841601 3.961479 87.478697 2.411957 -3.192216 3.252446 0.109624 -14.358589 -1.986111 0.448542 7.922618 -5.560024 0.000000 -0.000000 0.000000 5.356529 1.199464 -2.812425 1.398792 3.757739 16.495802 5.476198 -2.498438 -7.000845 0.000000 -0.000000 0.000000 -8.278609 2.986552 10.880186 -2.683400 -0.280825 2.411138 -2.767840 1.391531 1.789034 4.243556 5.916316 21.290146 0.139976 -3.201537 25.430006 -23.992696 -4.791542 2.906888 -48.366929 -11.178412 10.710313 3.123485 -15.444312 4.705962 1.418824 -8.442969 0.772912 23.733691 7.945035 6.636633 58.781118 9.811349 18.577430 -5.857324 31.368144 12.302748 5.373190 4.432865 -3.637424 
-2.131195 0.761509 1.012635 90.815094 4.042897 87.350073 2.356273 -3.095930 3.461269 0.077945 -14.430593 -2.182393 0.461805 7.927261 -5.501081 0.000000 -0.000000 0.000000 5.329195 1.380325 -2.870881 1.254917 3.587654 16.757386 5.620854 -2.626678 -7.014620 0.000000 -0.000000 0.000000 -8.308047 3.138672 10.330120 -2.429028 -0.069632 3.152337 -2.647157 1.298476 1.946833 4.213425 5.848072 21.282280 0.017477 -3.183376 25.189142 -24.047919 -5.525351 3.156532 -48.218977 -11.715693 10.862029 3.149557 -15.763472 4.407590 1.847201 -8.259201 1.144718 23.680119 8.249973 6.605810 58.800393 10.017486 18.672754 -6.109216 32.080139 11.793159 5.182302 4.434774 -4.021730 
-2.130959 0.764240 1.012456 91.207377 4.055136 87.375594 2.116232 -3.281797 3.533241 0.145306 -14.869615 -2.374722 0.684516 7.610657 -5.094223 0.000000 -0.000000 0.000000 5.066473 1.192937 -2.887205 1.276893 3.342736 16.807036 5.751105 -2.601336 -6.937304 0.000000 -0.000000 0.000000 -8.159696 2.914665 10.442096 -2.396414 -0.373964 2.781379 -2.720219 1.319420 1.822344 4.244660 5.874804 21.415162 -0.059273 -3.466552 25.519976 -23.852951 -5.452559 3.013881 -48.076908 -11.983068 10.991372 2.877861 -15.943563 4.803893 1.657117 -8.756074 0.680008 23.885405 8.109620 6.590103 58.967599 10.024818 18.882748 -5.895451 32.549699 11.981896 4.449745 5.220595 -4.027672 
-2.131312 0.766918 1.012316 91.351571 4.165786 87.390862 2.039643 -3.427558 3.742170 0.230204 -14.865511 -2.851281 0.765830 7.676881 -4.968912 0.000000 -0.000000 0.000000 4.957242 1.374299 -3.036744 1.358752 3.302154 17.034156 5.811404 -2.791955 -6.826596 0.000000 -0.000000 0.000000 -8.130275 2.885183 10.063900 -2.187252 -0.359310 2.958910 -2.639103 1.242477 1.925795 4.184016 5.796335 21.376889 -0.118374 -3.572554 25.438307 -23.715626 -5.742645 2.904626 -47.996305 -12.623690 10.962844 3.164074 -16.587187 4.030408 0.907619 -8.761066 -0.191142 23.855549 8.089568 6.505713 59.031741 10.105884 19.156855 -6.098417 33.410276 11.779472 4.971054 5.021731 -4.244747 
-2.131782 0.769707 1.012168 91.484054 4.255543 87.301442 1.920810 -3.299373 3.754208 0.219651 -15.033003 -2.671520 0.858618 7.475993 -5.043514 0.000000 -0.000000 0.000000 4.792709 1.312185 -3.139959 1.378345 3.051457 17.338216 5.816926 -2.562742 -6.621020 0.000000 -0.000000 0.000000 -7.942968 2.748120 10.075891 -2.166655 -0.566035 2.955922 -2.687676 1.192448 1.786311 4.083983 5.875784 21.379147 -0.100006 -3.491210 25.329826 -23.641939 -6.188070 2.933155 -47.784346 -13.075789 10.708049 3.473474 -16.752905 3.606418 1.335987 -8.607544 0.182724 23.837824 8.278590 6.561087 59.345483 10.025296 19.194742 -6.432719 34.145819 11.656401 4.852211 5.273944 -4.488079 
-2.132108 0.772443 1.011915 91.419663 4.327715 87.070312 1.760131 -3.271402 4.117828 0.276278 -15.202519 -2.852174 0.966754 7.527380 -5.109518 0.000000 -0.000000 0.000000 4.707739 1.355005 -3.464790 1.381074 2.943795 18.322299 5.923742 -2.601744 -6.458793 0.000000 -0.000000 0.000000 -7.932646 2.610418 10.236280 -2.099312 -0.592727 2.643044 -2.701661 1.189949 1.805637 4.125751 5.919254 21.308192 -0.188891 -3.469411 25.546913 -23.565316 -6.379966 2.672964 -47.590686 -13.600377 10.658297 3.712093 -16.786349 3.323563 2.396234 -8.676323 0.417037 23.854238 8.283255 6.380597 59.549250 9.915778 19.386523 -6.679055 34.668875 11.227302 4.476112 5.545186 -4.996311 
-2.131814 0.775519 1.011410 91.323200 4.523084 86.746900 1.789417 -3.080510 4.518643 0.205718 -15.515481 -2.885497 1.079179 7.497536 -5.454978 0.000000 -0.000000 0.000000 4.543370 1.416255 -3.760745 1.582786 2.554374 19.483326 6.033544 -2.286534 -6.251999 0.000000 -0.000000 0.000000 -7.761069 2.462850 10.062356 -1.991230 -0.612977 2.774823 -2.706732 1.069704 1.832775 4.034050 6.051148 21.344411 -0.327104 -3.261149 25.485140 -23.669411 -6.990019 2.809793 -47.262670 -14.273506 10.274061 4.159053 -16.548652 2.529686 2.438369 -8.771046 0.928742 23.848638 8.392518 6.405904 59.618765 9.929090 19.292897 -7.049115 35.233183 11.075955 4.661881 5.911798 -5.254434 
-2.131890 0.778389 1.011167 91.147135 4.726605 86.499037 1.803665 -3.147546 4.883757 0.163688 -15.627645 -3.023501 1.333215 7.740455 -5.627921 0.000000 -0.000000 0.000000 4.461266 1.721772 -4.524446 1.949688 2.666540 21.388708 5.903833 -1.926267 -5.136553 0.000000 -0.000000 0.000000 -7.543733 2.091130 10.253692 -1.982613 -0.789067 2.507868 -2.793116 1.041522 1.657695 3.749006 6.186171 21.418441 -0.545209 -2.989710 25.542464 -23.549094 -7.184617 2.541371 -47.092515 -14.346088 10.264910 4.642614 -16.782745 2.058191 3.559944 -8.510661 1.168690 23.931421 8.558139 6.399619 59.677860 9.791679 19.440452 -7.250305 35.492031 10.872120 4.195761 5.976360 -5.094394 
